<svg width="699" height="645" viewBox="0 0 699 645" fill="none" xmlns="http://www.w3.org/2000/svg">
<g id="Group 17">
<path id="Path 3" fill-rule="evenodd" clip-rule="evenodd" d="M341.639 27.3254C265.936 3.63167 188.096 -35.8875 108.404 36.2949C28.7114 108.477 -21.3904 171.709 10.9639 253.522C43.3182 335.336 175.386 284.377 213.758 357.499C252.131 430.621 167.817 496.984 204.167 562.062C240.516 627.14 268.466 668.849 385.282 627.471C502.098 586.092 491.327 480.807 580.16 419.153C668.993 357.499 765.104 265.2 633.206 100.506C501.309 -64.1879 417.341 51.0191 341.639 27.3254Z" stroke="#96A9C6"/>
<path id="Path 3 Copy" fill-rule="evenodd" clip-rule="evenodd" d="M351.105 65.2488C289.522 46.0091 226.2 13.9188 161.371 72.5323C96.5429 131.146 55.7857 182.491 82.1055 248.925C108.425 315.359 215.86 273.98 247.076 333.356C278.292 392.732 209.704 446.621 239.274 499.465C268.843 552.31 291.58 586.178 386.608 552.578C481.636 518.978 472.875 433.484 545.139 383.42C617.403 333.356 695.588 258.408 588.291 124.673C480.994 -9.06168 412.688 84.4885 351.105 65.2488Z" stroke="#96A9C6"/>
<path id="Path 3 Copy 2" fill-rule="evenodd" clip-rule="evenodd" d="M368.812 90.4174C318.85 74.719 267.478 48.5353 214.883 96.3603C162.289 144.185 129.223 186.08 150.576 240.286C171.929 294.492 259.09 260.729 284.414 309.176C309.739 357.624 254.095 401.594 278.084 444.712C302.074 487.829 320.52 515.464 397.615 488.048C474.71 460.633 467.602 390.875 526.229 350.026C584.856 309.176 648.287 248.023 561.238 138.904C474.189 29.7846 418.773 106.116 368.812 90.4174Z" stroke="#96A9C6"/>
<path id="Path 3 Copy 5" fill-rule="evenodd" clip-rule="evenodd" d="M387.316 121.184C347.021 108.588 305.588 87.5806 263.169 125.952C220.75 164.323 194.082 197.936 211.304 241.427C228.525 284.918 298.822 257.829 319.247 296.7C339.672 335.57 294.794 370.848 314.142 405.443C333.49 440.038 348.367 462.21 410.546 440.213C472.725 418.217 466.992 362.248 514.276 329.474C561.56 296.7 612.718 247.635 542.512 160.086C472.305 72.5365 427.611 133.779 387.316 121.184Z" stroke="#96A9C6"/>
<path id="Path 3 Copy 4" fill-rule="evenodd" clip-rule="evenodd" d="M392.083 141.046C359.173 130.751 325.334 113.579 290.69 144.943C256.047 176.308 234.266 203.783 248.332 239.332C262.397 274.881 319.809 252.739 336.49 284.511C353.172 316.283 316.519 345.12 332.321 373.397C348.123 401.674 360.273 419.797 411.055 401.818C461.837 383.838 457.155 338.09 495.773 311.301C534.39 284.511 576.171 244.406 518.833 172.844C461.494 101.282 424.992 151.341 392.083 141.046Z" stroke="#96A9C6"/>
<path id="Path 3 Copy 3" fill-rule="evenodd" clip-rule="evenodd" d="M401.225 155.406C374.507 147.046 347.034 133.101 318.907 158.571C290.78 184.041 273.097 206.352 284.517 235.22C295.936 264.088 342.548 246.107 356.091 271.908C369.635 297.709 339.877 321.125 352.706 344.088C365.535 367.051 375.4 381.768 416.629 367.168C457.858 352.567 454.057 315.417 485.409 293.663C516.762 271.908 550.684 239.34 504.132 181.228C457.579 123.116 427.944 163.766 401.225 155.406Z" stroke="#96A9C6"/>
</g>
</svg>
